<svg id="visual" viewBox="0 0 900 600" width="900" height="600" xmlns="http://www.w3.org/2000/svg" xmlns:xlink="http://www.w3.org/1999/xlink" version="1.1"><rect x="0" y="0" width="900" height="600" fill="#249400"></rect><g transform="translate(492.5886126517939 293.71103510751306)"><path d="M42.3 -84.2C71.1 -47.3 122 -63.1 138.6 -55C155.1 -46.9 137.5 -14.8 123.1 10.9C108.8 36.6 97.9 55.9 86.8 83.3C75.7 110.7 64.5 146 37.1 177.4C9.7 208.8 -33.9 236.4 -55.9 217.5C-77.9 198.6 -78.2 133.4 -110.8 95.9C-143.5 58.5 -208.3 48.9 -225.5 23.7C-242.8 -1.5 -212.3 -42.3 -170.6 -54.7C-128.9 -67.2 -75.8 -51.2 -45.5 -87.4C-15.1 -123.6 -7.6 -211.8 -0.4 -211.1C6.8 -210.5 13.5 -121 42.3 -84.2" fill="#063d0e"></path></g></svg>